USFL
nRows=138
nColumns=2
inDegrees=yes
endheader
time	soleus_r	
3	 34.045032	
3.0625	 33.470422	
3.125	 34.578754	
3.1875	 32.769236	
3.25	 34.637844	
3.3125	 34.857880	
3.375	 35.043852	
3.4375	 33.979410	
3.5	 34.161249	
3.5625	 34.170569	
3.625	 33.979063	
3.6875	 34.361449	
3.75	 33.799130	
3.8125	 34.496197	
3.875	 31.766761	
3.9375	 34.624083	
4	 34.619340	
4.0625	 35.240788	
4.125	 34.152419	
4.1875	 36.192546	
4.25	 34.367167	
4.3125	 34.708768	
4.375	 34.110648	
4.4375	 34.231735	
4.5	 33.655771	
4.5625	 32.890327	
4.625	 31.018368	
4.6875	 32.755954	
4.75	 33.016439	
4.8125	 32.689340	
4.875	 34.207922	
4.9375	 34.984289	
5	 35.742469	
5.0625	 35.213851	
5.125	 35.448910	
5.1875	 35.849327	
5.25	 34.396504	
5.3125	 36.309101	
5.375	 33.045773	
5.4375	 23.860764	
5.5	 23.862276	
5.5625	 23.862276	
5.625	 23.862276	
5.6875	 23.862276	
5.75	 23.862276	
5.8125	 23.862276	
5.875	 23.862276	
5.9375	 21.700065	
6	 19.262405	
6.0625	 19.045832	
6.125	 16.642475	
6.1875	 15.051514	
6.25	 15.550239	
6.3125	 15.111687	
6.375	 16.929934	
6.4375	 16.919788	
6.5	 16.935894	
6.5625	 16.935894	
6.625	 16.935894	
6.6875	 16.935894	
6.75	 16.935894	
6.8125	 16.935894	
6.875	 16.935894	
6.9375	 16.935894	
7	 16.935894	
7.0625	 16.935894	
7.125	 16.935894	
7.1875	 16.935894	
7.25	 16.935894	
7.3125	 16.935894	
7.375	 16.935894	
7.4375	 16.935894	
7.5	 16.935894	
7.5625	 16.935894	
7.625	 16.935894	
7.6875	 16.935894	
7.75	 16.935894	
7.8125	 16.935894	
7.875	 16.935894	
7.9375	 16.935894	
8	 16.935894	
8.0625	 16.935894	
8.125	 16.935894	
8.1875	 16.935894	
8.25	 16.935894	
8.3125	 16.935894	
8.375	 16.935894	
8.4375	 16.935894	
8.5	 16.935894	
8.5625	 16.935894	
8.625	 16.935894	
8.6875	 16.935894	
8.75	 16.935894	
8.8125	 16.935894	
8.875	 16.935894	
8.9375	 16.935894	
9	 16.935894	
9.0625	 16.935894	
9.125	 16.935894	
9.1875	 16.935894	
9.25	 16.935894	
9.3125	 16.935894	
9.375	 16.935894	
9.4375	 16.935894	
9.5	 16.935894	
9.5625	 16.935894	
9.625	 16.935894	
9.6875	 16.935894	
9.75	 16.935894	
9.8125	 16.935894	
9.875	 16.935894	
9.9375	 16.935894	
10	 17.666184	
10.0625	 17.666184	
10.125	 17.458316	
10.1875	 17.458316	
10.25	 17.458316	
10.3125	 17.458316	
10.375	 17.458316	
10.4375	 17.458316	
10.5	 17.458316	
10.5625	 21.432851	
10.625	 20.916574	
10.6875	 22.520781	
10.75	 22.470662	
10.8125	 23.919441	
10.875	 23.736461	
10.9375	 25.144266	
11	 24.862565	
11.0625	 28.020531	
11.125	 28.020531	
11.1875	 27.744333	
11.25	 24.381748	
11.3125	 23.909887	
11.375	 21.911477	
11.4375	 26.966817	
11.5	 26.965837	
11.5625	 27.470597	
